
<svg width="338" height="140" viewBox="0 0 338 140" fill="none" xmlns="http://www.w3.org/2000/svg">
<path d="M61.9844 85.9062C62.1562 85.6562 62.3516 85.2891 62.5703 84.8047C62.7891 84.3047 62.9609 83.6797 63.0859 82.9297C63.2578 81.8359 63.4453 80.6094 63.6484 79.25C63.8672 77.875 64.0859 76.4375 64.3047 74.9375C64.5391 73.4375 64.7656 71.9062 64.9844 70.3438C65.2188 68.7656 65.4375 67.2188 65.6406 65.7031C65.8594 64.1719 66.0625 62.7031 66.25 61.2969C66.4531 59.875 66.6328 58.5781 66.7891 57.4062C66.9453 56.2344 67.0703 55.2188 67.1641 54.3594C67.2734 53.4844 67.3516 52.8281 67.3984 52.3906H70.375L85.1172 79.9531L99.7422 52.3906H101.969L105.812 80.2344C105.922 81.1094 106.039 81.8594 106.164 82.4844C106.289 83.1094 106.414 83.6484 106.539 84.1016C106.664 84.5391 106.781 84.9062 106.891 85.2031C107.016 85.4844 107.133 85.7188 107.242 85.9062V86H101.336V85.9062C101.414 85.7344 101.484 85.4531 101.547 85.0625C101.625 84.6719 101.664 84.2031 101.664 83.6562C101.664 83.4531 101.656 83.25 101.641 83.0469C101.625 82.8281 101.602 82.5938 101.57 82.3438L98.5938 59.8906L84.7656 85.9062L83.1484 85.7188L69.2266 59.6562C68.6797 63.3594 68.2031 66.7812 67.7969 69.9219C67.625 71.2656 67.4531 72.6094 67.2812 73.9531C67.1094 75.2812 66.9531 76.5234 66.8125 77.6797C66.6875 78.8359 66.5859 79.8594 66.5078 80.75C66.4297 81.625 66.3906 82.2734 66.3906 82.6953C66.3906 83.2266 66.4062 83.6953 66.4375 84.1016C66.4688 84.5078 66.5 84.8516 66.5312 85.1328C66.5781 85.4609 66.625 85.75 66.6719 86H61.9844V85.9062ZM135.539 86V85.9062C135.57 85.8281 135.594 85.7109 135.609 85.5547C135.625 85.3984 135.633 85.2578 135.633 85.1328C135.633 84.6484 135.562 84.1172 135.422 83.5391C135.297 82.9453 135.047 82.2109 134.672 81.3359L131.836 74.9609C130.961 74.9297 129.797 74.9141 128.344 74.9141C126.891 74.9141 125.32 74.9141 123.633 74.9141C122.398 74.9141 121.203 74.9141 120.047 74.9141C118.906 74.9141 117.875 74.9297 116.953 74.9609L114.258 81.1484C114.023 81.7266 113.773 82.3594 113.508 83.0469C113.242 83.7344 113.109 84.4297 113.109 85.1328C113.109 85.3359 113.125 85.5078 113.156 85.6484C113.188 85.7734 113.219 85.8594 113.25 85.9062V86H108.469V85.9062C108.75 85.6094 109.102 85.0859 109.523 84.3359C109.945 83.5703 110.406 82.6172 110.906 81.4766L124.336 51.6875H126.211L138.938 80.3281C139.234 81 139.539 81.6562 139.852 82.2969C140.18 82.9219 140.484 83.4844 140.766 83.9844C141.047 84.4844 141.297 84.9062 141.516 85.25C141.734 85.5938 141.883 85.8125 141.961 85.9062V86H135.539ZM120.352 72.8984C121.258 72.8984 122.188 72.8984 123.141 72.8984C124.094 72.8828 125.023 72.875 125.93 72.875C126.852 72.8594 127.734 72.8516 128.578 72.8516C129.422 72.8359 130.188 72.8203 130.875 72.8047L124.289 57.9219L117.82 72.8984H120.352ZM149.562 76.8359C149.562 78.1641 149.578 79.3281 149.609 80.3281C149.656 81.3125 149.703 82.1641 149.75 82.8828C149.812 83.6016 149.883 84.2031 149.961 84.6875C150.055 85.1719 150.148 85.5781 150.242 85.9062V86H144.617V85.9062C144.711 85.5781 144.797 85.1719 144.875 84.6875C144.969 84.2031 145.039 83.6016 145.086 82.8828C145.148 82.1641 145.195 81.3125 145.227 80.3281C145.273 79.3438 145.297 78.1797 145.297 76.8359V61.5781C145.297 60.25 145.273 59.0938 145.227 58.1094C145.195 57.1094 145.148 56.25 145.086 55.5312C145.039 54.8125 144.969 54.2109 144.875 53.7266C144.797 53.2266 144.711 52.8125 144.617 52.4844V52.3906L145.602 52.4844C145.898 52.5156 146.227 52.5391 146.586 52.5547C146.961 52.5547 147.344 52.5547 147.734 52.5547C148.344 52.5547 149.164 52.4844 150.195 52.3438C151.242 52.1875 152.57 52.1094 154.18 52.1094C155.68 52.1094 157.062 52.3125 158.328 52.7188C159.609 53.125 160.719 53.7188 161.656 54.5C162.594 55.2812 163.32 56.2422 163.836 57.3828C164.367 58.5078 164.633 59.7891 164.633 61.2266C164.633 62.3516 164.484 63.3984 164.188 64.3672C163.906 65.3203 163.5 66.1875 162.969 66.9688C162.453 67.75 161.828 68.4453 161.094 69.0547C160.359 69.6484 159.539 70.1484 158.633 70.5547L166.859 82.1094C167.266 82.6875 167.641 83.1875 167.984 83.6094C168.344 84.0312 168.68 84.3984 168.992 84.7109C169.32 85.0078 169.633 85.2578 169.93 85.4609C170.227 85.6484 170.531 85.7969 170.844 85.9062V86H164.07C164.023 85.7031 163.867 85.3125 163.602 84.8281C163.352 84.3281 163.055 83.8359 162.711 83.3516L154.414 71.6562C154.055 71.6875 153.695 71.7188 153.336 71.75C152.977 71.7656 152.609 71.7734 152.234 71.7734C151.797 71.7734 151.352 71.7578 150.898 71.7266C150.461 71.6953 150.016 71.6406 149.562 71.5625V76.8359ZM149.562 69.7344C149.984 69.8281 150.414 69.8984 150.852 69.9453C151.289 69.9766 151.711 69.9922 152.117 69.9922C153.289 69.9922 154.359 69.8203 155.328 69.4766C156.297 69.1172 157.117 68.5781 157.789 67.8594C158.477 67.1406 159.008 66.25 159.383 65.1875C159.758 64.1094 159.945 62.8516 159.945 61.4141C159.945 60.2422 159.812 59.1797 159.547 58.2266C159.281 57.2734 158.883 56.4688 158.352 55.8125C157.836 55.1406 157.18 54.625 156.383 54.2656C155.586 53.8906 154.656 53.7031 153.594 53.7031C152.516 53.7031 151.656 53.7578 151.016 53.8672C150.375 53.9766 149.891 54.0938 149.562 54.2188V69.7344ZM188.055 51.8281C190.664 51.8281 193.07 52.2578 195.273 53.1172C197.492 53.9609 199.406 55.1562 201.016 56.7031C202.625 58.2344 203.883 60.0781 204.789 62.2344C205.695 64.3906 206.148 66.7734 206.148 69.3828C206.148 71.1484 205.906 72.875 205.422 74.5625C204.938 76.2344 204.234 77.7969 203.312 79.25C202.391 80.6875 201.258 81.9688 199.914 83.0938C198.586 84.2031 197.078 85.0781 195.391 85.7188C195.859 86.5938 196.344 87.4844 196.844 88.3906C197.359 89.3125 197.93 90.2109 198.555 91.0859C199.195 91.9766 199.922 92.8281 200.734 93.6406C201.547 94.4531 202.484 95.1953 203.547 95.8672C204.609 96.5391 205.828 97.1328 207.203 97.6484C208.578 98.1641 210.148 98.5547 211.914 98.8203C211.898 98.8672 211.875 98.9219 211.844 98.9844C211.812 99.0469 211.781 99.1094 211.75 99.1719C211.719 99.25 211.688 99.3359 211.656 99.4297C209.609 99.3672 207.711 99.1094 205.961 98.6562C204.227 98.2188 202.625 97.6484 201.156 96.9453C199.703 96.2578 198.375 95.4766 197.172 94.6016C195.969 93.7266 194.883 92.8281 193.914 91.9062C192.961 91 192.117 90.0938 191.383 89.1875C190.648 88.2969 190.016 87.4766 189.484 86.7266C186.844 86.7266 184.414 86.3125 182.195 85.4844C179.977 84.6406 178.055 83.4531 176.43 81.9219C174.82 80.3906 173.562 78.5547 172.656 76.4141C171.75 74.2578 171.297 71.8672 171.297 69.2422C171.297 67.7578 171.469 66.2969 171.812 64.8594C172.156 63.4219 172.656 62.0547 173.312 60.7578C173.984 59.4609 174.797 58.2734 175.75 57.1953C176.719 56.1016 177.82 55.1562 179.055 54.3594C180.305 53.5625 181.68 52.9453 183.18 52.5078C184.695 52.0547 186.32 51.8281 188.055 51.8281ZM189.391 84.6172C191.125 84.6172 192.711 84.3047 194.148 83.6797C195.586 83.0547 196.82 82.1484 197.852 80.9609C198.898 79.7734 199.711 78.3281 200.289 76.625C200.867 74.9062 201.156 72.9609 201.156 70.7891C201.156 68.3828 200.875 66.1562 200.312 64.1094C199.766 62.0469 198.945 60.2656 197.852 58.7656C196.758 57.25 195.391 56.0703 193.75 55.2266C192.125 54.3672 190.227 53.9375 188.055 53.9375C186.32 53.9375 184.734 54.25 183.297 54.875C181.859 55.4844 180.617 56.375 179.57 57.5469C178.539 58.7188 177.734 60.1562 177.156 61.8594C176.578 63.5625 176.289 65.5 176.289 67.6719C176.289 70.0625 176.562 72.2969 177.109 74.375C177.656 76.4375 178.477 78.2266 179.57 79.7422C180.664 81.2578 182.031 82.4531 183.672 83.3281C185.312 84.1875 187.219 84.6172 189.391 84.6172ZM235.242 61.5781C235.242 60.25 235.227 59.0938 235.195 58.1094C235.164 57.1094 235.117 56.25 235.055 55.5312C234.992 54.7969 234.922 54.1875 234.844 53.7031C234.766 53.2188 234.68 52.8125 234.586 52.4844V52.3906H238.758V52.4844C238.664 52.8125 238.57 53.2188 238.477 53.7031C238.398 54.1875 238.328 54.7969 238.266 55.5312C238.219 56.25 238.172 57.1094 238.125 58.1094C238.094 59.0938 238.078 60.25 238.078 61.5781V74.2344C238.078 76.4688 237.758 78.375 237.117 79.9531C236.477 81.5312 235.586 82.8281 234.445 83.8438C233.305 84.8438 231.938 85.5703 230.344 86.0234C228.75 86.4922 227.008 86.7266 225.117 86.7266C223.227 86.7266 221.461 86.5078 219.82 86.0703C218.195 85.6328 216.773 84.9297 215.555 83.9609C214.352 82.9766 213.406 81.7109 212.719 80.1641C212.031 78.6016 211.688 76.7031 211.688 74.4688V61.5781C211.688 60.25 211.672 59.0938 211.641 58.1094C211.609 57.1094 211.562 56.25 211.5 55.5312C211.438 54.7969 211.359 54.1875 211.266 53.7031C211.188 53.2188 211.102 52.8125 211.008 52.4844V52.3906H216.633V52.4844C216.539 52.8125 216.445 53.2188 216.352 53.7031C216.273 54.1875 216.203 54.7969 216.141 55.5312C216.078 56.25 216.031 57.1094 216 58.1094C215.969 59.0938 215.953 60.25 215.953 61.5781V74.7266C215.953 76.5859 216.227 78.125 216.773 79.3438C217.336 80.5469 218.07 81.5078 218.977 82.2266C219.883 82.9297 220.914 83.4219 222.07 83.7031C223.227 83.9844 224.406 84.125 225.609 84.125C226.812 84.125 227.992 83.9844 229.148 83.7031C230.305 83.4219 231.328 82.9297 232.219 82.2266C233.125 81.5078 233.852 80.5469 234.398 79.3438C234.961 78.125 235.242 76.5859 235.242 74.7266V61.5781ZM245.023 52.3906C246.977 52.3906 248.914 52.3828 250.836 52.3672C252.773 52.3516 254.547 52.3359 256.156 52.3203C257.766 52.2891 259.141 52.25 260.281 52.2031C261.422 52.1562 262.195 52.0938 262.602 52.0156L261.453 55.1328C260.938 54.9922 260.336 54.8672 259.648 54.7578C259.055 54.6641 258.328 54.5781 257.469 54.5C256.625 54.4062 255.648 54.3594 254.539 54.3594C254.164 54.3594 253.711 54.375 253.18 54.4062C252.664 54.4219 252.164 54.4453 251.68 54.4766C251.117 54.5078 250.547 54.5391 249.969 54.5703V67.3672C251.578 67.3516 253.031 67.3047 254.328 67.2266C255.625 67.1484 256.727 67.0703 257.633 66.9922C258.695 66.8984 259.633 66.7891 260.445 66.6641L259.719 70.0625C258.641 69.9219 257.539 69.7891 256.414 69.6641C255.445 69.5547 254.391 69.4609 253.25 69.3828C252.109 69.2891 251.016 69.2422 249.969 69.2422V83.9375C251.812 83.9375 253.508 83.8594 255.055 83.7031C256.602 83.5469 257.953 83.3672 259.109 83.1641C260.453 82.9453 261.68 82.6875 262.789 82.3906L262.109 86.1875C261.922 86.1719 261.641 86.1562 261.266 86.1406C260.891 86.125 260.469 86.1094 260 86.0938C259.547 86.0781 259.062 86.0625 258.547 86.0469C258.047 86.0469 257.57 86.0391 257.117 86.0234C256.664 86.0234 256.258 86.0156 255.898 86C255.555 86 255.305 86 255.148 86H245.023V85.9062C245.117 85.5781 245.203 85.1719 245.281 84.6875C245.375 84.2031 245.453 83.6016 245.516 82.8828C245.578 82.1641 245.625 81.3125 245.656 80.3281C245.688 79.3281 245.703 78.1641 245.703 76.8359V61.5781C245.703 60.25 245.688 59.0938 245.656 58.1094C245.625 57.1094 245.578 56.25 245.516 55.5312C245.453 54.7969 245.375 54.1875 245.281 53.7031C245.203 53.2188 245.117 52.8125 245.023 52.4844V52.3906ZM268.516 85.9062C268.609 85.5781 268.695 85.1719 268.773 84.6875C268.852 84.2031 268.922 83.6016 268.984 82.8828C269.047 82.1641 269.094 81.3125 269.125 80.3281C269.156 79.3281 269.172 78.1641 269.172 76.8359V61.5781C269.172 60.25 269.156 59.0938 269.125 58.1094C269.094 57.1094 269.047 56.25 268.984 55.5312C268.922 54.7969 268.852 54.1875 268.773 53.7031C268.695 53.2188 268.609 52.8125 268.516 52.4844V52.3906H274.117V52.4844C274.023 52.8125 273.93 53.2188 273.836 53.7031C273.758 54.1875 273.688 54.7969 273.625 55.5312C273.578 56.25 273.531 57.1094 273.484 58.1094C273.453 59.0938 273.438 60.25 273.438 61.5781V76.8359C273.438 78.1641 273.453 79.3281 273.484 80.3281C273.531 81.3125 273.578 82.1641 273.625 82.8828C273.688 83.6016 273.758 84.2031 273.836 84.6875C273.93 85.1719 274.023 85.5781 274.117 85.9062V86H268.516V85.9062Z" fill="#51004F"/>
</svg>
